  <svg
    width="516"
    height="516"
    viewBox="0 0 516 516"
    fill="none"
    xmlns="http://www.w3.org/2000/svg"
  >
    <path
      d="M115.681 10.3068C117.346 4.22067 122.876 0 129.185 0H344.417C355.008 0 362.677 10.1049 359.827 20.3053L300.984 230.92C299.158 237.456 293.171 241.952 286.384 241.883L65.9637 239.632C59.4097 239.565 54.6909 233.317 56.42 226.995L115.681 10.3068Z"
      fill="#183DBD"
    />
    <path
      d="M212.681 284.307C214.346 278.221 219.876 274 226.185 274H441.417C452.008 274 459.677 284.105 456.827 294.305L397.984 504.92C396.158 511.456 390.171 515.952 383.384 515.883L162.964 513.632C156.41 513.565 151.691 507.317 153.42 500.995L212.681 284.307Z"
      fill="#6319FC"
    />
    <path
      d="M365.705 113.316C367.366 107.225 372.898 103 379.211 103H488.933C499.519 103 507.187 113.096 504.346 123.294L474.362 230.909C472.54 237.451 466.55 241.952 459.759 241.882L343.954 240.697C337.403 240.63 332.685 234.386 334.409 228.066L365.705 113.316Z"
      fill="#183DBD"
    />
    <path
      d="M47.7048 284.316C49.366 278.225 54.8982 274 61.2115 274H170.933C181.519 274 189.187 284.096 186.346 294.294L156.362 401.909C154.54 408.451 148.55 412.952 141.759 412.882L25.9539 411.697C19.4029 411.63 14.6848 405.386 16.4087 399.066L47.7048 284.316Z"
      fill="#4E05E4"
    />
  </svg>